<svg width="20" height="20" viewBox="0 0 20 20" fill="none" xmlns="http://www.w3.org/2000/svg">
<path d="M10 0.672501L19.8625 7.08333L18.3333 8.0775V13.3333H16.6667V9.16083L15.8333 9.7025V14.5833C15.8333 15.8083 14.9883 16.7625 13.9558 17.3658C12.9017 17.98 11.5017 18.3325 10 18.3325C8.49833 18.3325 7.0975 17.98 6.04416 17.3658C5.01083 16.7625 4.16666 15.8075 4.16666 14.5825V9.7025L0.137497 7.08333L10 0.672501ZM5.83333 10.7858V14.5833C5.83333 14.9692 6.10833 15.4725 6.88416 15.925C7.64083 16.3667 8.74 16.6667 10 16.6667C11.26 16.6667 12.3592 16.3667 13.1158 15.925C13.8925 15.4725 14.1658 14.9692 14.1658 14.5833V10.7858L9.99916 13.4942L5.83333 10.7858ZM16.8042 7.08333L10 2.66083L3.19583 7.08333L10 11.5058L16.8042 7.08333Z" fill="#0072DC" fill-opacity="0.5"/>
</svg>
