<svg width="41" height="41" viewBox="0 0 41 41" fill="none" xmlns="http://www.w3.org/2000/svg">
<g clip-path="url(#clip0_87_20)">
<path d="M23.2044 4.3137L37.7076 6.63078L32.5455 38.9416L3.172 34.2488L8.13935 3.15696L20.6633 20.2194L23.2044 4.3137ZM21.4489 34.1564L30.0774 35.535L30.3902 33.5772L25.7639 32.8381L26.2331 29.9007L30.8595 30.6399L31.1725 28.6807L26.5461 27.9415L27.0154 25.0042L31.6417 25.7433L31.9545 23.7856L27.3282 23.0465L27.7975 20.1091L32.4238 20.8482L32.7366 18.8905L28.1103 18.1514L28.5795 15.214L33.2059 15.9531L33.5189 13.9939L28.8926 13.2548L29.3618 10.3175L33.9882 11.0566L34.3009 9.09884L25.6725 7.72033L21.4489 34.1564ZM18.5116 33.6872L20.0039 24.3464L9.95394 10.6538L6.57863 31.7807L18.5116 33.6872Z" fill="#0072DC" fill-opacity="0.5"/>
</g>
<defs>
<clipPath id="clip0_87_20">
<rect width="35.6952" height="35.6952" fill="white" transform="translate(5.63141) rotate(9.07709)"/>
</clipPath>
</defs>
</svg>
