<svg width="20" height="20" viewBox="0 0 20 20" fill="none" xmlns="http://www.w3.org/2000/svg">
<path d="M10.854 4.354C11.045 4.162 11.099 4.112 11.204 4.057C11.519 3.939 11.829 3.997 12.1 4.2L12.123 4.216C12.2022 4.27278 12.2681 4.34615 12.316 4.431C12.348 4.481 12.378 4.534 12.416 4.599L12.43 4.626C12.469 4.693 12.514 4.77 12.566 4.851C12.668 5.052 12.769 5.229 12.863 5.394L12.876 5.417L11.146 7.147C11.0522 7.24089 10.9996 7.36817 10.9997 7.50085C10.9998 7.63354 11.0526 7.76075 11.1465 7.8545C11.2404 7.94825 11.3677 8.00087 11.5004 8.00078C11.633 8.00068 11.7602 7.94789 11.854 7.854L13.41 6.297C13.467 6.393 13.525 6.489 13.584 6.577C13.644 6.668 13.701 6.762 13.764 6.866L13.874 7.05C13.974 7.21 14.1 7.408 14.247 7.554C14.931 8.238 15.781 8.129 16.25 7.834C16.507 7.701 16.654 7.554 16.837 7.371L16.854 7.354C16.9018 7.30788 16.9398 7.2527 16.9661 7.1917C16.9923 7.1307 17.0061 7.06509 17.0066 6.9987C17.0072 6.93231 16.9946 6.86647 16.9694 6.80502C16.9443 6.74358 16.9071 6.68775 16.8602 6.6408C16.8133 6.59386 16.7574 6.55673 16.696 6.53159C16.6345 6.50645 16.5687 6.4938 16.5023 6.49438C16.4359 6.49495 16.3703 6.50875 16.3093 6.53495C16.2483 6.56115 16.1931 6.59925 16.147 6.647C15.944 6.85 15.896 6.894 15.777 6.953C15.7584 6.9622 15.7403 6.97255 15.723 6.984C15.585 7.076 15.257 7.149 14.954 6.847C14.8673 6.74801 14.7909 6.64045 14.726 6.526C14.6964 6.47751 14.667 6.42884 14.638 6.38C14.5667 6.25936 14.4927 6.14033 14.416 6.023C14.3197 5.87339 14.2283 5.72064 14.142 5.565L15.854 3.854C15.9004 3.80751 15.9372 3.75234 15.9623 3.69162C15.9874 3.63091 16.0003 3.56584 16.0003 3.50015C16.0002 3.43445 15.9872 3.3694 15.9621 3.30873C15.9369 3.24805 15.9 3.19292 15.8535 3.1465C15.807 3.10008 15.7518 3.06327 15.6911 3.03817C15.6304 3.01307 15.5653 3.00018 15.4996 3.00022C15.434 3.00027 15.3689 3.01325 15.3082 3.03844C15.2475 3.06362 15.1924 3.10051 15.146 3.147L13.61 4.683C13.5532 4.58231 13.4989 4.48029 13.447 4.377C13.4378 4.35838 13.4274 4.34034 13.416 4.323C13.3745 4.25933 13.3352 4.19429 13.298 4.128L13.283 4.102C13.2433 4.03173 13.2019 3.96238 13.159 3.894C13.039 3.69573 12.879 3.52474 12.689 3.392C12.167 3.005 11.489 2.866 10.814 3.136C10.8011 3.14113 10.7884 3.1468 10.776 3.153C10.503 3.29 10.353 3.44 10.164 3.63L10.146 3.647C10.0522 3.74089 9.99963 3.86817 9.99972 4.00085C9.99982 4.13354 10.0526 4.26075 10.1465 4.3545C10.2404 4.44825 10.3677 4.50087 10.5004 4.50078C10.633 4.50068 10.7602 4.44789 10.854 4.354ZM8.308 7C8.769 7.003 9.19 7.23 9.487 7.544C9.785 7.858 9.993 8.294 9.999 8.78C10.0302 9.12132 9.98546 9.46533 9.86788 9.78728C9.7503 10.1092 9.56285 10.4011 9.319 10.642C8.866 11.102 8.246 11.402 7.612 11.602C6.452 11.969 5.102 12.041 4.204 12.01C3.985 12.698 3.942 13.22 4.005 13.615C4.05449 13.9797 4.23985 14.3122 4.524 14.546C4.792 14.821 5.125 14.904 5.624 15.006C6.958 15.169 8.264 14.397 9.075 13.29C9.15462 13.1867 9.27144 13.1187 9.40054 13.1003C9.52964 13.0819 9.6608 13.1147 9.76607 13.1917C9.87133 13.2686 9.94237 13.3837 9.96403 13.5123C9.98569 13.6408 9.95625 13.7728 9.882 13.88C8.925 15.187 7.288 16.227 5.48 15.996C5.46759 15.9945 5.45525 15.9925 5.443 15.99L5.404 15.982C4.939 15.887 4.321 15.761 3.822 15.259C3.38683 14.8742 3.102 14.3478 3.018 13.773C2.92 13.163 3.006 12.461 3.267 11.658C3.26918 11.6513 3.27151 11.6446 3.274 11.638L3.402 11.294C3.40789 11.2783 3.41457 11.263 3.422 11.248L3.428 11.233C3.71 10.4342 4.10902 9.68165 4.612 9C5.368 7.992 6.577 6.946 8.308 7ZM4.588 11.017C5.388 11.016 6.429 10.927 7.311 10.649C7.865 10.474 8.314 10.237 8.607 9.939C8.885 9.659 9.038 9.312 9.001 8.84C9.00366 8.72776 8.98379 8.61613 8.94257 8.5117C8.90135 8.40727 8.83961 8.31216 8.761 8.232C8.61 8.072 8.434 8 8.299 8H8.282C7.018 7.958 6.079 8.71 5.412 9.6C5.0866 10.0408 4.81061 10.516 4.589 11.017" fill="#0072DC" fill-opacity="0.5"/>
</svg>
