<svg width="32" height="33" viewBox="0 0 32 33" fill="none" xmlns="http://www.w3.org/2000/svg">
<g clip-path="url(#clip0_87_14)">
<path d="M7.67352 9.7399L19.5336 5.98562L19.8569 7.00691L7.99681 10.7612L7.67352 9.7399Z" fill="#0072DC" fill-opacity="0.5"/>
<path d="M20.7765 7.62195L8.16528 11.614C7.99638 11.6649 7.81892 11.681 7.64363 11.6614C7.46833 11.6418 7.29882 11.5869 7.14532 11.5C6.99181 11.4131 6.8575 11.296 6.75047 11.1558C6.64345 11.0156 6.56593 10.8551 6.52259 10.6842C6.41602 10.3503 6.44022 9.98848 6.59029 9.67181C6.74037 9.35515 7.00513 9.10731 7.33099 8.97842L19.9423 4.98637C20.117 4.93106 20.2626 4.80859 20.3471 4.6459C20.4315 4.48322 20.4479 4.29366 20.3926 4.11891C20.3373 3.94416 20.2148 3.79854 20.0521 3.71408C19.8894 3.62963 19.6999 3.61326 19.5251 3.66858L6.91385 7.66063C6.23853 7.90072 5.68285 8.39369 5.36401 9.03559C5.04517 9.67749 4.98808 10.4181 5.2048 11.1013C5.23246 11.2108 5.26659 11.3187 5.307 11.4242C5.31728 11.4787 5.33408 11.5318 5.35706 11.5823L10.2105 26.9148C10.4264 27.5982 10.8993 28.1711 11.5294 28.5126C12.1595 28.8541 12.8977 28.9375 13.5881 28.7453L26.1994 24.7532C26.3741 24.6979 26.5198 24.5755 26.6042 24.4128C26.6887 24.2501 26.705 24.0605 26.6497 23.8858L21.6586 8.1184C21.6022 7.93902 21.4797 7.78784 21.3158 7.69562C21.152 7.6034 20.9591 7.57706 20.7765 7.62195ZM25.1234 23.644L13.171 27.4275C12.8303 27.5096 12.4712 27.4593 12.1662 27.2866C11.8612 27.114 11.6332 26.832 11.5283 26.4977L7.26302 13.0232C7.70308 13.1113 8.15872 13.0797 8.58242 12.9318L20.5348 9.14832L25.1234 23.644Z" fill="#0072DC" fill-opacity="0.5"/>
</g>
<defs>
<clipPath id="clip0_87_14">
<rect width="24.8803" height="24.8803" fill="white" transform="translate(0 8.39935) rotate(-17.565)"/>
</clipPath>
</defs>
</svg>
