<svg width="41" height="41" viewBox="0 0 41 41" fill="none" xmlns="http://www.w3.org/2000/svg">
<g clip-path="url(#clip0_87_2)">
<path d="M20.2325 15.0137C20.1739 14.7367 20.0077 14.4943 19.7703 14.3398C19.533 14.1854 19.244 14.1315 18.967 14.1901C18.69 14.2487 18.4476 14.415 18.2931 14.6523C18.1386 14.8897 18.0848 15.1786 18.1434 15.4557L19.425 21.5142L13.1576 22.84C12.8806 22.8986 12.6382 23.0649 12.4837 23.3022C12.3293 23.5395 12.2754 23.8285 12.334 24.1055C12.3926 24.3826 12.5589 24.625 12.7962 24.7794C13.0336 24.9339 13.3225 24.9877 13.5996 24.9291L20.9116 23.3823C21.1886 23.3237 21.431 23.1575 21.5855 22.9201C21.7399 22.6828 21.7938 22.3938 21.7351 22.1168L20.2325 15.0137Z" fill="#0072DC" fill-opacity="0.5"/>
<path d="M14.0213 6.28759C13.9627 6.01056 14.0166 5.72158 14.171 5.48425C14.3255 5.24692 14.5679 5.08066 14.8449 5.02205L19.0232 4.13816C19.3002 4.07956 19.5892 4.1334 19.8265 4.28786C20.0639 4.44231 20.2301 4.68472 20.2887 4.96176C20.3473 5.23879 20.2935 5.52776 20.139 5.7651C19.9846 6.00243 19.7422 6.16869 19.4651 6.2273L19.717 7.4181C22.6449 7.22653 25.481 7.90122 27.9293 9.26035L27.9486 9.22789L28.5317 8.33189L27.6362 7.75087C27.3986 7.5965 27.2321 7.35408 27.1732 7.07693C27.1144 6.79978 27.1681 6.51061 27.3224 6.27303C27.4768 6.03546 27.7192 5.86893 27.9964 5.8101C28.2735 5.75127 28.5627 5.80494 28.8003 5.95931L32.3797 8.29053C32.4998 8.36578 32.6038 8.46421 32.6855 8.58007C32.7672 8.69593 32.825 8.8269 32.8555 8.96534C32.8861 9.10379 32.8888 9.24692 32.8634 9.38641C32.838 9.52589 32.7851 9.65893 32.7078 9.77775C32.6305 9.89658 32.5303 9.99881 32.413 10.0785C32.2957 10.1582 32.1638 10.2137 32.0248 10.2418C31.8859 10.27 31.7427 10.2701 31.6037 10.2424C31.4647 10.2146 31.3326 10.1594 31.2151 10.08L30.3212 9.49645L29.7381 10.3925L29.7162 10.4233C32.3628 12.4288 34.2662 15.2584 35.1261 18.4657C35.9861 21.673 35.7536 25.0753 34.4653 28.1358C33.177 31.1963 30.9064 33.7407 28.0116 35.3675C25.1168 36.9944 21.7628 37.611 18.4787 37.1201C15.1946 36.6291 12.1675 35.0587 9.87494 32.6565C7.58243 30.2542 6.15507 27.1571 5.81809 23.8536C5.48111 20.5502 6.2537 17.2286 8.01395 14.413C9.7742 11.5973 12.4219 9.44799 15.5392 8.30408L15.2869 7.11119C15.0098 7.16979 14.7209 7.11595 14.4835 6.96149C14.2462 6.80704 14.0799 6.56463 14.0213 6.28759ZM18.0389 9.80294C16.3928 10.1513 14.8315 10.8205 13.4441 11.7722C12.0566 12.724 10.8702 13.9397 9.95258 15.35C8.09937 18.1982 7.45349 21.6659 8.15704 24.9902C8.86058 28.3146 10.8559 31.2234 13.7041 33.0766C16.5523 34.9298 20.02 35.5757 23.3443 34.8721C26.6687 34.1686 29.5775 32.1732 31.4307 29.3251C33.2839 26.4769 33.9298 23.0092 33.2262 19.6848C32.5227 16.3604 30.5273 13.4517 27.6792 11.5985C24.831 9.74528 21.3633 9.0994 18.0389 9.80294Z" fill="#0072DC" fill-opacity="0.5"/>
</g>
<defs>
<clipPath id="clip0_87_2">
<rect width="34.1659" height="34.1659" fill="white" transform="translate(0 7.07111) rotate(-11.9445)"/>
</clipPath>
</defs>
</svg>
