<svg width="20" height="20" viewBox="0 0 20 20" fill="none" xmlns="http://www.w3.org/2000/svg">
<path d="M8.63083 12.655C8.63083 11.3108 5.97667 11.1254 5.97667 7.75001C5.97667 4.37459 7.85167 4.03959 7.85167 2.72918C7.85167 1.41876 2.65833 3.01251 2.65833 8.03834C2.65833 13.0642 8.63083 13.9992 8.63083 12.655Z" stroke="#0072DC" stroke-width="0.416667" stroke-linecap="round" stroke-linejoin="round"/>
<path d="M12.6267 11.3404C11.2825 11.3404 11.0971 13.9946 7.72167 13.9946C4.34625 13.9946 4.01125 12.1196 2.70083 12.1196C1.39042 12.1196 2.98417 17.3133 8.01 17.3133C13.0358 17.3133 13.9708 11.3404 12.6267 11.3404ZM7.37333 8.67418C8.7175 8.67418 8.90292 6.0196 12.2783 6.0196C15.6538 6.0196 15.9888 7.89501 17.2992 7.89501C18.6096 7.89501 17.0158 2.70126 11.99 2.70126C6.96417 2.70126 6.02917 8.67418 7.37333 8.67418Z" stroke="#0072DC" stroke-width="0.416667" stroke-linecap="round" stroke-linejoin="round"/>
<path d="M11.3692 7.34501C11.3692 8.68918 14.0238 8.87459 14.0238 12.25C14.0238 15.6254 12.1487 15.9604 12.1487 17.2708C12.1487 18.5813 17.3421 16.9875 17.3421 11.9617C17.3421 6.93584 11.3692 6.00084 11.3692 7.34501Z" stroke="#0072DC" stroke-width="0.416667" stroke-linecap="round" stroke-linejoin="round"/>
</svg>
