<svg width="29" height="28" viewBox="0 0 29 28" fill="none" xmlns="http://www.w3.org/2000/svg">
<g clip-path="url(#clip0_87_22)">
<path d="M13.3344 6.38237L11.7957 5.96686C11.2534 5.82044 10.6945 6.14168 10.5481 6.68392L7.04658 19.6505C6.90016 20.1928 7.2214 20.7517 7.76364 20.8981L12.5558 22.1922C12.3191 22.259 12.1039 22.3862 11.9313 22.5613C11.7586 22.7364 11.6345 22.9534 11.5711 23.191L7.44532 22.0769C6.87216 21.9221 6.38396 21.546 6.08812 21.0313C5.79227 20.5165 5.71302 19.9054 5.8678 19.3322L9.36931 6.3656C9.52409 5.79244 9.90021 5.30424 10.4149 5.00839C10.9297 4.71255 11.5408 4.6333 12.114 4.78808L13.5285 5.17006C13.739 4.75076 14.0878 4.41704 14.516 4.22538C14.9442 4.03371 15.4254 3.99587 15.8783 4.11827L19.0217 4.96712C19.4747 5.08933 19.8715 5.36428 20.145 5.74543C20.4185 6.12659 20.5519 6.59053 20.5227 7.05875L21.9372 7.44074C22.5104 7.59551 22.9986 7.97164 23.2944 8.48637C23.5902 9.00109 23.6695 9.61226 23.5147 10.1854L21.7871 16.5831C21.8367 16.3391 21.8215 16.0863 21.743 15.85C21.6645 15.6137 21.5254 15.4021 21.3397 15.2363L21.2934 15.1951C21.1902 15.1026 21.0809 15.0171 20.9663 14.939L22.3359 9.86711C22.4824 9.32487 22.1611 8.76595 21.6189 8.61952L20.0802 8.20401C19.8326 8.51315 19.5002 8.74333 19.1237 8.86632C18.7472 8.98931 18.343 8.99976 17.9607 8.8964L14.8172 8.04755C14.4348 7.9444 14.0909 7.73191 13.8275 7.43613C13.5641 7.14034 13.3927 6.77412 13.3344 6.38237ZM14.5619 5.8707C14.5056 6.07912 14.5345 6.30136 14.642 6.48854C14.7496 6.67571 14.9271 6.81248 15.1356 6.86877L18.279 7.71762C18.4874 7.7739 18.7097 7.74508 18.8968 7.6375C19.084 7.52992 19.2208 7.3524 19.2771 7.14397C19.3333 6.93555 19.3045 6.71331 19.1969 6.52613C19.0894 6.33896 18.9118 6.20219 18.7034 6.1459L15.56 5.29705C15.3516 5.24077 15.1293 5.26959 14.9422 5.37717C14.755 5.48475 14.6182 5.66228 14.5619 5.8707ZM19.9176 20.59C19.8669 20.4221 19.7824 20.2663 19.6691 20.1325C19.5558 19.9986 19.4162 19.8895 19.2589 19.8118C19.1017 19.7342 18.9301 19.6897 18.755 19.6811C18.5798 19.6725 18.4048 19.7 18.2407 19.762C18.1656 19.7902 18.0969 19.833 18.0385 19.8879C17.98 19.9427 17.9329 20.0086 17.8998 20.0816C17.8668 20.1547 17.8485 20.2335 17.8459 20.3137C17.8433 20.3938 17.8566 20.4736 17.8849 20.5487C17.9132 20.6237 17.956 20.6924 18.0108 20.7509C18.0657 20.8094 18.1315 20.8565 18.2046 20.8895C18.2776 20.9225 18.3565 20.9409 18.4366 20.9434C18.5167 20.946 18.5966 20.9327 18.6716 20.9044C18.6791 20.9016 18.6871 20.9004 18.6951 20.9007C18.7031 20.9011 18.7109 20.9031 18.7181 20.9067C18.7253 20.9102 18.7316 20.9151 18.7368 20.9212C18.742 20.9273 18.7459 20.9344 18.7483 20.942L19.1929 22.4179L17.1249 23.6065C17.0524 23.6448 16.9884 23.6973 16.9367 23.7609C16.8849 23.8245 16.8466 23.8979 16.8238 23.9767C16.801 24.0554 16.7943 24.138 16.8042 24.2194C16.814 24.3007 16.8401 24.3793 16.881 24.4504C16.9218 24.5215 16.9766 24.5836 17.042 24.6331C17.1073 24.6825 17.182 24.7183 17.2615 24.7383C17.3411 24.7583 17.4238 24.762 17.5048 24.7493C17.5858 24.7366 17.6634 24.7078 17.733 24.6644L19.555 23.6185L19.9175 24.821C19.9687 24.9911 20.055 25.1486 20.1706 25.2834C20.2863 25.4183 20.4289 25.5274 20.5893 25.6039C20.7496 25.6804 20.9242 25.7225 21.1018 25.7276C21.2794 25.7327 21.4561 25.7005 21.6205 25.6333C21.6964 25.6041 21.7657 25.5601 21.8243 25.5039C21.883 25.4476 21.9298 25.3802 21.962 25.3055C21.9943 25.2309 22.0113 25.1506 22.0121 25.0694C22.0129 24.9881 21.9974 24.9075 21.9666 24.8323C21.9359 24.757 21.8904 24.6887 21.8329 24.6313C21.7753 24.5739 21.7069 24.5285 21.6317 24.4979C21.5564 24.4673 21.4757 24.452 21.3945 24.4529C21.3132 24.4539 21.2329 24.4711 21.1584 24.5034C21.1514 24.5062 21.144 24.5076 21.1365 24.5073C21.129 24.5071 21.1217 24.5053 21.1149 24.502C21.1082 24.4988 21.1022 24.4941 21.0973 24.4884C21.0925 24.4827 21.0889 24.4761 21.0868 24.4689L20.6421 22.9931L22.7181 21.7999C22.8524 21.7163 22.949 21.5838 22.9875 21.4304C23.0261 21.2769 23.0035 21.1146 22.9247 20.9774C22.8459 20.8403 22.7169 20.7391 22.5649 20.6951C22.413 20.6512 22.2499 20.668 22.1101 20.7419L20.2798 21.7932L19.9176 20.59ZM17.1484 16.7284C17.6766 15.2252 19.5629 14.7405 20.7511 15.8016L20.7979 15.8438C20.86 15.8965 20.911 15.9611 20.9477 16.0338C20.9845 16.1066 21.0063 16.1859 21.0119 16.2672C21.0176 16.3485 21.0068 16.4301 20.9804 16.5072C20.954 16.5843 20.9124 16.6553 20.8582 16.716C20.8039 16.7768 20.738 16.8261 20.6643 16.861C20.5907 16.8959 20.5108 16.9157 20.4294 16.9192C20.348 16.9228 20.2667 16.91 20.1903 16.8816C20.1139 16.8532 20.044 16.8098 19.9846 16.754L19.9376 16.7126C19.8129 16.6014 19.6628 16.5225 19.5004 16.483C19.338 16.4435 19.1684 16.4447 19.0065 16.4863C18.8447 16.528 18.6956 16.6088 18.5724 16.7218C18.4492 16.8347 18.3558 16.9763 18.3003 17.1339L18.2079 17.3948L19.1784 17.6569C19.3347 17.6991 19.4679 17.8017 19.5486 17.942C19.6293 18.0824 19.6509 18.2491 19.6087 18.4054C19.5665 18.5617 19.4639 18.6949 19.3235 18.7756C19.1831 18.8562 19.0164 18.8779 18.8601 18.8356L17.8016 18.5498L16.1896 23.133C15.6606 24.636 13.775 25.1209 12.5861 24.0596L12.5401 24.0176C12.4779 23.9649 12.427 23.9003 12.3902 23.8276C12.3535 23.7548 12.3316 23.6755 12.326 23.5942C12.3204 23.5129 12.3311 23.4313 12.3575 23.3542C12.3839 23.2771 12.4255 23.2061 12.4798 23.1453C12.5341 23.0846 12.6 23.0353 12.6736 23.0004C12.7473 22.9655 12.8271 22.9457 12.9086 22.9422C12.99 22.9386 13.0713 22.9514 13.1476 22.9798C13.224 23.0082 13.294 23.0516 13.3533 23.1074L13.3995 23.1485C13.5242 23.26 13.6744 23.339 13.8369 23.3786C13.9994 23.4182 14.1691 23.4171 14.3311 23.3755C14.493 23.3339 14.6422 23.253 14.7655 23.1399C14.8887 23.0269 14.9822 22.8853 15.0377 22.7275L16.6196 18.2306L15.7167 17.9868C15.5604 17.9446 15.4272 17.842 15.3465 17.7016C15.2659 17.5612 15.2442 17.3946 15.2865 17.2382C15.3287 17.0819 15.4312 16.9488 15.5716 16.8681C15.712 16.7874 15.8787 16.7658 16.035 16.808L17.026 17.0756L17.1484 16.7284Z" fill="#0072DC" fill-opacity="0.5"/>
</g>
<defs>
<clipPath id="clip0_87_22">
<rect width="22.7921" height="22.7921" fill="white" transform="translate(6.87244) rotate(15.1117)"/>
</clipPath>
</defs>
</svg>
