<svg width="28" height="28" viewBox="0 0 28 28" fill="none" xmlns="http://www.w3.org/2000/svg">
<g clip-path="url(#clip0_87_10)">
<path d="M2.89105 4.61236C4.33997 4.10709 6.40486 3.59262 8.38727 3.51389C10.5239 3.42847 12.3061 3.85207 13.2838 5.01546L12.3418 20.5777C10.9 19.6411 9.01489 19.41 7.25897 19.48C5.36317 19.5575 3.43004 19.987 1.93196 20.4573L2.89105 4.61236ZM14.8806 5.11212C15.9915 4.07514 17.8117 3.8696 19.9224 4.21212C21.8809 4.52939 23.8686 5.28917 25.246 5.96551L24.2869 21.8104C22.8549 21.1628 20.9894 20.5018 19.1166 20.1993C17.3804 19.9163 15.4829 19.9169 13.9386 20.6744L14.8806 5.11212ZM14.1695 3.6203C12.6786 2.17262 10.4106 1.8334 8.32217 1.91533C5.88985 2.01331 3.3998 2.69435 1.83781 3.29374C1.69449 3.34874 1.57002 3.44381 1.47926 3.56762C1.3885 3.69142 1.33529 3.83873 1.32597 3.99196L0.262779 21.5566C0.25473 21.6902 0.280329 21.8236 0.33723 21.9448C0.394132 22.0659 0.480517 22.1708 0.588473 22.2499C0.69643 22.329 0.822506 22.3797 0.955154 22.3975C1.0878 22.4152 1.22278 22.3994 1.34773 22.3515C2.79475 21.798 5.11027 21.1673 7.32248 21.0784C9.58608 20.9879 11.4497 21.4677 12.3842 22.7903C12.4533 22.8881 12.5436 22.9691 12.6482 23.0273C12.7529 23.0856 12.8693 23.1196 12.9888 23.1268C13.1084 23.134 13.228 23.1143 13.3389 23.0691C13.4498 23.0239 13.5492 22.9544 13.6296 22.8657C14.7168 21.6654 16.6247 21.4139 18.8592 21.7768C21.0462 22.1319 23.2703 23.0374 24.6384 23.7613C24.7567 23.8239 24.8888 23.8559 25.0226 23.8543C25.1564 23.8527 25.2877 23.8175 25.4044 23.752C25.5211 23.6865 25.6195 23.5928 25.6906 23.4794C25.7617 23.366 25.8032 23.2366 25.8113 23.1031L26.8745 5.53842C26.8838 5.38519 26.8487 5.23254 26.7735 5.09869C26.6984 4.96484 26.5863 4.85545 26.4506 4.78357C24.9724 4.00014 22.5826 3.02373 20.1799 2.63308C18.1167 2.29825 15.8242 2.36302 14.1695 3.6203Z" fill="#0072DC" fill-opacity="0.5"/>
</g>
<defs>
<clipPath id="clip0_87_10">
<rect width="25.5953" height="25.5953" fill="white" transform="translate(1.56763) rotate(3.46391)"/>
</clipPath>
</defs>
</svg>
