<svg width="48" height="48" viewBox="0 0 48 48" fill="none" xmlns="http://www.w3.org/2000/svg">
<g clip-path="url(#clip0_87_14)">
<path d="M11.6498 13.4345L29.6556 7.73487L30.1464 9.28537L12.1406 14.985L11.6498 13.4345Z" fill="#0072DC" fill-opacity="0.5"/>
<path d="M31.5425 10.2191L12.3964 16.2798C12.1399 16.357 11.8705 16.3814 11.6044 16.3517C11.3383 16.3219 11.0809 16.2386 10.8479 16.1066C10.6148 15.9747 10.4109 15.797 10.2484 15.5841C10.0859 15.3712 9.96825 15.1277 9.90246 14.8681C9.74066 14.3613 9.7774 13.8119 10.0052 13.3312C10.2331 12.8504 10.635 12.4742 11.1298 12.2785L30.2759 6.21784C30.5412 6.13386 30.7623 5.94792 30.8905 5.70094C31.0187 5.45396 31.0436 5.16617 30.9596 4.90087C30.8756 4.63556 30.6897 4.41449 30.4427 4.28628C30.1957 4.15806 29.9079 4.13321 29.6426 4.21719L10.4965 10.2778C9.47121 10.6423 8.62759 11.3908 8.14353 12.3653C7.65946 13.3398 7.5728 14.4642 7.90182 15.5014C7.94381 15.6677 7.99562 15.8314 8.05698 15.9915C8.07258 16.0743 8.09809 16.1549 8.13297 16.2316L15.5014 39.5091C15.8291 40.5467 16.547 41.4164 17.5037 41.9349C18.4603 42.4533 19.581 42.58 20.6292 42.2881L39.7754 36.2275C40.0407 36.1435 40.2617 35.9576 40.39 35.7106C40.5182 35.4636 40.543 35.1758 40.459 34.9105L32.8816 10.9728C32.7961 10.7005 32.61 10.471 32.3612 10.331C32.1125 10.191 31.8197 10.151 31.5425 10.2191ZM38.1417 34.5435L19.9959 40.2875C19.4787 40.4121 18.9335 40.3357 18.4705 40.0736C18.0075 39.8115 17.6613 39.3834 17.502 38.8758L11.0266 18.4192C11.6947 18.553 12.3864 18.505 13.0297 18.2804L31.1755 12.5364L38.1417 34.5435Z" fill="#0072DC" fill-opacity="0.5"/>
</g>
<defs>
<clipPath id="clip0_87_14">
<rect width="37.7727" height="37.7727" fill="white" transform="translate(0 11.3994) rotate(-17.565)"/>
</clipPath>
</defs>
</svg>
