<svg width="20" height="20" viewBox="0 0 20 20" fill="none" xmlns="http://www.w3.org/2000/svg">
<path d="M10.0382 0.874795C9.38192 0.874795 8.76903 1.17362 8.24661 1.66296C7.72427 2.15241 7.27708 2.83405 6.90431 3.65972C6.82618 3.83269 6.75157 4.01245 6.68024 4.19788C6.48789 4.16735 6.29472 4.14226 6.10095 4.12265C5.87556 4.10019 5.65563 4.08624 5.44196 4.08124C4.80056 4.06601 4.21434 4.13104 3.70056 4.28679C3.01556 4.49448 2.45032 4.87597 2.1222 5.44421C1.79407 6.01257 1.74641 6.6928 1.90903 7.38991C2.07173 8.08698 2.43841 8.81507 2.96712 9.55077C3.07806 9.70507 3.19657 9.85983 3.32165 10.0146C3.19928 10.1656 3.08121 10.3201 2.96759 10.4778C2.43884 11.2135 2.07216 11.9416 1.9095 12.6387C1.74684 13.3358 1.79454 14.016 2.12266 14.5843C2.45079 15.1526 3.01602 15.5341 3.70102 15.7417C4.38606 15.9494 5.19997 15.9959 6.10141 15.9058C6.2904 15.8869 6.48345 15.8617 6.67985 15.8308C6.74956 16.0126 6.82441 16.1924 6.90431 16.3699C7.27708 17.1957 7.72423 17.8772 8.24661 18.3666C8.76899 18.856 9.38196 19.1549 10.0382 19.1549C10.6943 19.1549 11.3073 18.856 11.8297 18.3666C12.352 17.8772 12.7992 17.1957 13.172 16.3699C13.2519 16.1924 13.3267 16.0126 13.3965 15.8308C13.5926 15.8617 13.7855 15.887 13.9743 15.9058C14.8758 15.9958 15.6898 15.9494 16.3747 15.7417C17.0598 15.5341 17.625 15.1526 17.9532 14.5843C18.2813 14.0159 18.329 13.3358 18.1663 12.6387C18.0036 11.9416 17.6369 11.2135 17.1083 10.4778C16.9946 10.3201 16.8765 10.1656 16.7541 10.0146C16.8767 9.86337 16.9949 9.70873 17.1087 9.55081C17.6374 8.81511 18.0041 8.08702 18.1667 7.38995C18.3294 6.69284 18.2817 6.01261 17.9536 5.44425C17.6254 4.87601 17.0602 4.49452 16.3752 4.28683C15.8615 4.13108 15.2752 4.06605 14.6339 4.08124C14.42 4.08624 14.2001 4.10019 13.9747 4.12265C13.7857 4.14155 13.5924 4.1669 13.3959 4.19784C13.3263 4.0164 13.2516 3.83696 13.1718 3.65972C12.7991 2.83394 12.3519 2.15229 11.8295 1.66292C11.3072 1.17354 10.6942 0.874756 10.038 0.874756L10.0382 0.874795ZM10.0382 1.60476C10.4759 1.60476 10.905 1.79706 11.3306 2.19577C11.7561 2.5944 12.1625 3.19784 12.5067 3.96011C12.5626 4.08448 12.6158 4.21007 12.6663 4.33679C11.8297 4.5228 10.9436 4.80819 10.0379 5.18952C9.13247 4.80827 8.24653 4.52296 7.41009 4.33694C7.46173 4.20765 7.51477 4.08163 7.5697 3.96007C7.91384 3.19776 8.32024 2.59433 8.74579 2.19562C9.17134 1.79698 9.60048 1.60468 10.0383 1.60468L10.0382 1.60476ZM5.21044 4.81011C5.28091 4.8094 5.35251 4.80987 5.4252 4.81151C5.61895 4.81581 5.8204 4.82831 6.02845 4.84913C6.16149 4.86241 6.29747 4.8794 6.43563 4.89944C6.17837 5.7169 5.98251 6.62687 5.85977 7.60179C5.07665 8.19554 4.38641 8.8203 3.80704 9.4519C3.72225 9.34466 3.63984 9.23554 3.55989 9.12464C3.07181 8.4455 2.75247 7.79183 2.61993 7.22394C2.48743 6.65604 2.53556 6.18827 2.75438 5.80921C2.97321 5.43015 3.35438 5.15464 3.91235 4.98546C4.27856 4.8744 4.71704 4.81456 5.2104 4.81007L5.21044 4.81011ZM14.8654 4.81011C15.3588 4.8146 15.7973 4.87444 16.1635 4.9855C16.7215 5.15464 17.1025 5.43015 17.3214 5.80921C17.5402 6.18827 17.5884 6.65608 17.4559 7.22394C17.3235 7.79179 17.004 8.4455 16.5159 9.12464C16.436 9.23555 16.3536 9.34469 16.2689 9.45198C15.6896 8.82046 14.9995 8.19585 14.2167 7.60218C14.094 6.6271 13.8979 5.71702 13.6406 4.89944C13.7786 4.8794 13.9145 4.86233 14.0474 4.84913C14.2479 4.82881 14.4492 4.81625 14.6507 4.81147C14.7222 4.80985 14.7938 4.80937 14.8654 4.81003V4.81011ZM12.9154 5.03042C13.1096 5.63347 13.2703 6.29886 13.3903 7.01089C13.0027 6.7491 12.6061 6.50109 12.201 6.26733C11.7962 6.03352 11.3833 5.81407 10.9631 5.6094C11.6397 5.35726 12.2962 5.16382 12.9154 5.0305V5.03042ZM7.16087 5.03054C7.78001 5.1639 8.43645 5.35733 9.11282 5.60944C8.69258 5.81412 8.2797 6.03355 7.87493 6.26733C7.47005 6.501 7.07352 6.74886 6.6861 7.01046C6.80602 6.29862 6.96673 5.63343 7.16087 5.03054ZM10.0379 5.98601C10.632 6.24804 11.2349 6.55257 11.836 6.8996C12.4373 7.24679 13.0028 7.61679 13.5268 8.00038C13.597 8.64597 13.6347 9.32062 13.6347 10.0148C13.6347 10.7087 13.5971 11.383 13.527 12.0283C13.0029 12.4119 12.4375 12.7818 11.8364 13.1289C11.2352 13.476 10.6321 13.7806 10.038 14.0426C9.44376 13.7806 8.84063 13.476 8.23946 13.1289C7.63848 12.7819 7.07329 12.4121 6.54946 12.0287C6.47934 11.3833 6.44165 10.7088 6.44165 10.0148C6.44165 9.32046 6.47934 8.64573 6.54954 8.00007C7.07349 7.61659 7.6388 7.24663 8.23989 6.8996C8.84098 6.55261 9.44395 6.24804 10.0379 5.98608V5.98601ZM10.0873 7.08429L7.99739 8.37401L10.0873 9.66386L12.1772 8.37401L10.0873 7.08425V7.08429ZM5.76075 8.61296C5.72791 9.07949 5.71153 9.54703 5.71165 10.0147C5.71165 10.4912 5.72845 10.9589 5.76079 11.4157C5.20415 10.9559 4.70833 10.484 4.28317 10.0144C4.70833 9.54476 5.20411 9.0728 5.76075 8.61296ZM14.3156 8.61335C14.872 9.07312 15.3677 9.54487 15.7927 10.0144C15.3677 10.4839 14.872 10.9557 14.3156 11.4153C14.3484 10.9492 14.3648 10.482 14.3647 10.0148C14.3647 9.53804 14.3479 9.07022 14.3156 8.61335H14.3156ZM7.52657 8.94124V11.488L9.72149 12.8426V10.2959L7.52657 8.94124ZM12.646 8.94257L10.4516 10.2969V12.8423L12.6461 11.488L12.646 8.94257ZM3.80696 10.5769C4.38641 11.2086 5.07657 11.8332 5.85962 12.4269C5.98227 13.4017 6.17821 14.3116 6.4354 15.1291C6.29751 15.149 6.16173 15.1661 6.02891 15.1794C5.19673 15.2625 4.47083 15.2122 3.91282 15.043C3.35477 14.8739 2.97376 14.5983 2.75489 14.2192C2.53606 13.8401 2.4879 13.3723 2.6204 12.8045C2.7529 12.2366 3.07227 11.5829 3.56036 10.9038C3.64014 10.793 3.72234 10.684 3.80696 10.5769ZM16.2688 10.5771C16.355 10.6864 16.4376 10.7954 16.5154 10.9038C17.0035 11.5829 17.3229 12.2366 17.4554 12.8044C17.5879 13.3723 17.5398 13.8401 17.321 14.2192C17.1021 14.5982 16.721 14.8739 16.1629 15.043C15.605 15.2121 14.8792 15.2624 14.047 15.1793C13.9113 15.1656 13.7759 15.1488 13.6409 15.1291C13.8982 14.3115 14.0941 13.4014 14.2167 12.4264C14.9995 11.8328 15.6896 11.2083 16.2689 10.577L16.2688 10.5771ZM13.3904 13.0178C13.2705 13.7298 13.1098 14.3951 12.9157 14.9982C12.2964 14.8648 11.6398 14.6713 10.9632 14.4192C11.3835 14.2144 11.7966 13.9949 12.2015 13.761C12.6064 13.5273 13.003 13.2794 13.3905 13.0178H13.3904ZM6.68595 13.0182C7.07323 13.2797 7.46962 13.5275 7.87438 13.761C8.27929 13.9949 8.69231 14.2144 9.11266 14.4192C8.43626 14.6712 7.77985 14.8648 7.16059 14.9981C6.96645 14.3952 6.80587 13.73 6.68595 13.0182ZM10.0598 13.0514L10.0863 13.0678L10.1128 13.0514H10.0598H10.0598ZM10.0379 14.8392C10.9438 15.2204 11.8299 15.5058 12.6666 15.6917C12.6161 15.8188 12.5627 15.9448 12.5067 16.0695C12.1625 16.8317 11.7561 17.4351 11.3306 17.8338C10.905 18.2325 10.4759 18.4248 10.0382 18.4248C9.60044 18.4248 9.17126 18.2325 8.74575 17.8338C8.32024 17.4351 7.91384 16.8317 7.5697 16.0694C7.51362 15.9447 7.46029 15.8188 7.40973 15.6917C8.2463 15.5057 9.13231 15.2204 10.038 14.8392H10.0379Z" fill="#0072DC" fill-opacity="0.5"/>
</svg>
