<svg width="37" height="37" viewBox="0 0 37 37" fill="none" xmlns="http://www.w3.org/2000/svg">
<path d="M13.5284 5.08544L10.6621 4.88893C9.90197 4.83681 9.15222 5.0888 8.57784 5.58948C8.00346 6.09015 7.6515 6.79849 7.59938 7.55867L6.22378 27.6224C6.17166 28.3826 6.42366 29.1324 6.92433 29.7068C7.425 30.2811 8.13334 30.6331 8.89352 30.6852L26.091 31.8643C26.8512 31.9164 27.601 31.6644 28.1753 31.1637C28.7497 30.6631 29.1017 29.9547 29.1538 29.1946L30.5294 9.13078C30.5815 8.3706 30.3295 7.62085 29.8289 7.04647C29.3282 6.47209 28.6198 6.12013 27.8597 6.06801L22.1272 5.67498M13.5284 5.08544L12.6441 17.9836L17.2382 13.979L21.2428 18.5731L22.1272 5.67498M13.5284 5.08544L22.1272 5.67498" stroke="#0072DC" stroke-opacity="0.5" stroke-width="3.33333" stroke-linecap="round" stroke-linejoin="round"/>
</svg>
