<svg width="20" height="20" viewBox="0 0 20 20" fill="none" xmlns="http://www.w3.org/2000/svg">
<g clip-path="url(#clip0_217_1371)">
<path d="M19.2857 7.85714C19.2857 12.9857 15.0714 19.2857 10 19.2857C4.92858 19.2857 0.714294 12.9857 0.714294 7.85714C0.714294 2.72857 4.87144 0.714287 10 0.714287C15.1286 0.714287 19.2857 2.72857 19.2857 7.85714Z" stroke="#0072DC" stroke-opacity="0.5" stroke-width="1.42857" stroke-linecap="round" stroke-linejoin="round"/>
<path d="M3.92858 6.78572C3.79984 7.38367 3.79555 8.00171 3.91598 8.60139C4.03641 9.20107 4.27897 9.76954 4.62858 10.2714C5.13047 10.621 5.69894 10.8636 6.29862 10.984C6.8983 11.1045 7.51634 11.1002 8.11429 10.9714C8.24303 10.3735 8.24732 9.75544 8.12689 9.15576C8.00646 8.55608 7.7639 7.98761 7.41429 7.48572C6.9124 7.13611 6.34393 6.89355 5.74425 6.77312C5.14457 6.65269 4.52653 6.65698 3.92858 6.78572ZM16.0714 6.78572C16.2002 7.38367 16.2045 8.00171 16.084 8.60139C15.9636 9.20107 15.721 9.76954 15.3714 10.2714C14.8695 10.621 14.3011 10.8636 13.7014 10.984C13.1017 11.1045 12.4837 11.1002 11.8857 10.9714C11.757 10.3735 11.7527 9.75544 11.8731 9.15576C11.9936 8.55608 12.2361 7.98761 12.5857 7.48572C13.0876 7.13611 13.6561 6.89355 14.2558 6.77312C14.8554 6.65269 15.4735 6.65698 16.0714 6.78572Z" stroke="#0072DC" stroke-opacity="0.5" stroke-width="1.42857" stroke-linecap="round" stroke-linejoin="round"/>
</g>
<defs>
<clipPath id="clip0_217_1371">
<rect width="20" height="20" fill="white"/>
</clipPath>
</defs>
</svg>
