<svg width="52" height="52" viewBox="0 0 52 52" fill="none" xmlns="http://www.w3.org/2000/svg">
<g clip-path="url(#clip0_87_22)">
<path d="M22.6963 11.6783L19.8808 10.918C18.8886 10.6501 17.8659 11.2379 17.598 12.2301L11.191 35.9561C10.9231 36.9483 11.5109 37.971 12.5031 38.2389L21.2716 40.6068C20.8386 40.729 20.4448 40.9618 20.1289 41.2822C19.813 41.6026 19.5859 41.9997 19.4698 42.4344L11.9206 40.3958C10.8719 40.1126 9.97856 39.4244 9.43723 38.4826C8.89591 37.5407 8.7509 36.4224 9.0341 35.3737L15.4411 11.6476C15.7243 10.5989 16.4125 9.70555 17.3544 9.16423C18.2962 8.6229 19.4145 8.47789 20.4633 8.7611L23.0516 9.46004C23.4366 8.69282 24.0748 8.08218 24.8583 7.73148C25.6418 7.38077 26.5224 7.31154 27.3511 7.5355L33.1029 9.08871C33.9317 9.31233 34.6577 9.81542 35.1582 10.5128C35.6586 11.2103 35.9028 12.0592 35.8492 12.9159L38.4375 13.6149C39.4863 13.8981 40.3796 14.5863 40.9209 15.5281C41.4622 16.47 41.6072 17.5883 41.324 18.637L38.1629 30.3433C38.2537 29.8968 38.2259 29.4344 38.0822 29.002C37.9386 28.5696 37.6841 28.1824 37.3442 27.879L37.2596 27.8037C37.0706 27.6345 36.8707 27.4779 36.661 27.3351L39.1671 18.0546C39.4351 17.0624 38.8473 16.0397 37.8551 15.7718L35.0396 15.0115C34.5866 15.5772 33.9783 15.9983 33.2894 16.2234C32.6006 16.4484 31.861 16.4675 31.1614 16.2784L25.4096 14.7252C24.7099 14.5365 24.0805 14.1477 23.5985 13.6064C23.1166 13.0652 22.803 12.3951 22.6963 11.6783ZM24.9424 10.7421C24.8394 11.1234 24.8922 11.5301 25.089 11.8726C25.2859 12.215 25.6107 12.4653 25.9921 12.5683L31.7438 14.1215C32.1252 14.2245 32.5318 14.1718 32.8743 13.9749C33.2168 13.7781 33.4671 13.4532 33.5701 13.0719C33.6731 12.6905 33.6203 12.2838 33.4235 11.9414C33.2266 11.5989 32.9018 11.3486 32.5204 11.2456L26.7687 9.69241C26.3873 9.58943 25.9806 9.64216 25.6382 9.839C25.2957 10.0358 25.0454 10.3607 24.9424 10.7421ZM34.742 37.6751C34.6494 37.3678 34.4947 37.0829 34.2874 36.838C34.0801 36.593 33.8246 36.3933 33.5369 36.2512C33.2491 36.1092 32.9353 36.0278 32.6148 36.012C32.2943 35.9963 31.9739 36.0467 31.6737 36.16C31.5364 36.2117 31.4107 36.29 31.3037 36.3904C31.1967 36.4908 31.1105 36.6112 31.0501 36.7449C30.9896 36.8786 30.9561 37.0228 30.9514 37.1695C30.9467 37.3161 30.9709 37.4622 31.0227 37.5995C31.0745 37.7367 31.1528 37.8625 31.2531 37.9695C31.3535 38.0765 31.474 38.1627 31.6076 38.2231C31.7413 38.2836 31.8856 38.3171 32.0322 38.3218C32.1788 38.3265 32.3249 38.3023 32.4622 38.2505C32.4759 38.2453 32.4905 38.243 32.5052 38.2437C32.5198 38.2444 32.5341 38.2481 32.5473 38.2545C32.5604 38.261 32.5721 38.27 32.5816 38.2812C32.5911 38.2923 32.5982 38.3052 32.6026 38.3192L33.4161 41.0198L29.6321 43.1946C29.4995 43.2647 29.3824 43.3608 29.2877 43.4772C29.193 43.5936 29.1228 43.7278 29.0811 43.8719C29.0395 44.0161 29.0273 44.1671 29.0452 44.316C29.0632 44.465 29.111 44.6087 29.1858 44.7388C29.2605 44.8689 29.3607 44.9825 29.4803 45.073C29.6 45.1636 29.7366 45.229 29.8821 45.2656C30.0276 45.3021 30.179 45.309 30.3272 45.2858C30.4754 45.2626 30.6174 45.2097 30.7448 45.1304L34.0787 43.2167L34.7419 45.4168C34.8357 45.7281 34.9935 46.0164 35.2051 46.2631C35.4168 46.5098 35.6777 46.7095 35.9712 46.8495C36.2646 46.9895 36.584 47.0665 36.909 47.0758C37.2339 47.085 37.5572 47.0263 37.8581 46.9032C37.997 46.8499 38.1237 46.7694 38.231 46.6664C38.3383 46.5634 38.424 46.44 38.483 46.3035C38.5419 46.167 38.5731 46.0201 38.5745 45.8714C38.576 45.7227 38.5477 45.5752 38.4914 45.4375C38.4351 45.2999 38.3519 45.1749 38.2466 45.0698C38.1414 44.9647 38.0162 44.8818 37.8785 44.8257C37.7407 44.7697 37.5931 44.7417 37.4444 44.7434C37.2957 44.7452 37.1489 44.7766 37.0125 44.8358C36.9998 44.841 36.9861 44.8434 36.9724 44.8429C36.9588 44.8425 36.9453 44.8392 36.933 44.8332C36.9206 44.8273 36.9097 44.8188 36.9008 44.8084C36.8919 44.798 36.8853 44.7858 36.8814 44.7727L36.0679 42.0722L39.8665 39.8889C40.1122 39.7359 40.2889 39.4935 40.3594 39.2128C40.4299 38.9321 40.3887 38.6349 40.2445 38.384C40.1003 38.133 39.8642 37.9479 39.5862 37.8675C39.3081 37.7871 39.0097 37.8178 38.7538 37.9531L35.4049 39.8767L34.742 37.6751ZM29.6751 30.6093C30.6416 27.8587 34.0932 26.9718 36.2672 28.9135L36.3528 28.9906C36.4665 29.087 36.5597 29.2053 36.627 29.3384C36.6943 29.4714 36.7342 29.6166 36.7445 29.7654C36.7548 29.9141 36.7352 30.0634 36.6869 30.2044C36.6385 30.3455 36.5625 30.4755 36.4631 30.5866C36.3638 30.6978 36.2432 30.788 36.1084 30.8518C35.9737 30.9157 35.8276 30.9519 35.6786 30.9584C35.5296 30.9649 35.3809 30.9415 35.2411 30.8895C35.1013 30.8376 34.9734 30.7582 34.8648 30.6561L34.7787 30.5804C34.5506 30.3768 34.2758 30.2325 33.9787 30.1603C33.6816 30.088 33.3712 30.0901 33.0751 30.1663C32.7789 30.2425 32.5061 30.3904 32.2807 30.5971C32.0553 30.8038 31.8843 31.0628 31.7828 31.3512L31.6137 31.8286L33.3896 32.3081C33.6756 32.3854 33.9193 32.5731 34.0669 32.8299C34.2145 33.0868 34.2541 33.3918 34.1768 33.6778C34.0996 33.9638 33.9119 34.2075 33.655 34.3551C33.3982 34.5027 33.0932 34.5423 32.8072 34.465L30.8702 33.942L27.9206 42.3282C26.9527 45.0784 23.5026 45.9657 21.3271 44.0236L21.2429 43.9469C21.1292 43.8504 21.036 43.7322 20.9687 43.5991C20.9014 43.466 20.8615 43.3209 20.8512 43.1721C20.8409 43.0234 20.8605 42.8741 20.9088 42.733C20.9572 42.592 21.0333 42.462 21.1326 42.3508C21.2319 42.2396 21.3525 42.1495 21.4873 42.0856C21.622 42.0218 21.7682 41.9855 21.9171 41.9791C22.0661 41.9726 22.2148 41.996 22.3546 42.0479C22.4944 42.0998 22.6223 42.1792 22.731 42.2814L22.8155 42.3567C23.0436 42.5606 23.3185 42.7052 23.6158 42.7777C23.9131 42.8501 24.2236 42.8481 24.52 42.772C24.8163 42.6958 25.0894 42.5478 25.3149 42.341C25.5404 42.1341 25.7115 41.8749 25.813 41.5863L28.7076 33.358L27.0554 32.9118C26.7694 32.8346 26.5257 32.6469 26.3781 32.39C26.2305 32.1332 26.1909 31.8282 26.2682 31.5421C26.3454 31.2561 26.5331 31.0125 26.79 30.8649C27.0468 30.7172 27.3518 30.6777 27.6378 30.7549L29.4511 31.2446L29.6751 30.6093Z" fill="#0072DC" fill-opacity="0.5"/>
</g>
<defs>
<clipPath id="clip0_87_22">
<rect width="41.7045" height="41.7045" fill="white" transform="translate(10.8724) rotate(15.1117)"/>
</clipPath>
</defs>
</svg>
