<svg width="25" height="25" viewBox="0 0 25 25" fill="none" xmlns="http://www.w3.org/2000/svg">
<path d="M17.4106 4.01763L15.1921 12.297L18.4562 19.9305C18.6157 20.3005 18.6676 20.708 18.606 21.1062C18.5445 21.5044 18.3718 21.8771 18.108 22.1817C17.8442 22.4862 17.4999 22.7102 17.1145 22.828C16.7292 22.9457 16.3185 22.9524 15.9295 22.8473L3.75881 19.5862C3.3694 19.4827 3.01705 19.2716 2.74221 18.9769C2.46736 18.6823 2.28116 18.3161 2.20496 17.9205C2.12876 17.5248 2.16565 17.1157 2.31141 16.7401C2.45717 16.3644 2.70588 16.0375 3.02901 15.7968L9.67255 10.818L11.891 2.53866M9.82116 1.98405L19.4804 4.57224" stroke="#0072DC" stroke-opacity="0.5" stroke-width="1.42857" stroke-linecap="round" stroke-linejoin="round"/>
</svg>
