<svg width="63" height="63" viewBox="0 0 63 63" fill="none" xmlns="http://www.w3.org/2000/svg">
<g clip-path="url(#clip0_87_10)">
<path d="M6.62078 10.6406C9.96339 9.47495 14.727 8.28809 19.3004 8.10646C24.2297 7.9094 28.341 8.88662 30.5965 11.5705L28.4234 47.4723C25.0973 45.3114 20.7483 44.7783 16.6975 44.9398C12.3239 45.1187 7.8642 46.1095 4.40816 47.1943L6.62078 10.6406ZM34.2803 11.7935C36.8431 9.40125 41.0423 8.92708 45.9117 9.71726C50.4298 10.4492 55.0155 12.202 58.1931 13.7623L55.9805 50.316C52.6769 48.822 48.3732 47.2971 44.0527 46.5993C40.0474 45.9464 35.6698 45.9477 32.1071 47.6953L34.2803 11.7935ZM32.64 8.35193C29.2003 5.01217 23.9681 4.22961 19.1502 4.41862C13.5389 4.64465 7.79443 6.2158 4.19096 7.59858C3.86033 7.72545 3.57318 7.94478 3.36381 8.2304C3.15443 8.51602 3.03167 8.85586 3.01017 9.20935L0.557413 49.7305C0.538844 50.0387 0.5979 50.3466 0.72917 50.626C0.86044 50.9055 1.05973 51.1475 1.30878 51.33C1.55783 51.5124 1.84869 51.6295 2.1547 51.6704C2.46072 51.7114 2.77211 51.6748 3.06036 51.5642C6.39861 50.2874 11.7405 48.8324 16.844 48.6274C22.066 48.4185 26.3655 49.5254 28.5211 52.5767C28.6807 52.8022 28.8889 52.9891 29.1303 53.1234C29.3717 53.2578 29.6402 53.3362 29.916 53.3529C30.1918 53.3696 30.4679 53.3241 30.7237 53.2199C30.9796 53.1157 31.2088 52.9553 31.3944 52.7506C33.9024 49.9816 38.3039 49.4014 43.459 50.2384C48.5042 51.0577 53.6352 53.1467 56.7914 54.8166C57.0642 54.9612 57.3689 55.035 57.6776 55.0313C57.9863 55.0275 58.2892 54.9464 58.5584 54.7953C58.8277 54.6442 59.0547 54.428 59.2187 54.1664C59.3828 53.9049 59.4785 53.6063 59.4973 53.2981L61.95 12.777C61.9713 12.4235 61.8904 12.0713 61.717 11.7625C61.5436 11.4538 61.2851 11.2014 60.9721 11.0356C57.5618 9.22823 52.0487 6.97566 46.5057 6.07446C41.746 5.30202 36.4573 5.45144 32.64 8.35193Z" fill="#0072DC" fill-opacity="0.5"/>
</g>
<defs>
<clipPath id="clip0_87_10">
<rect width="59.0477" height="59.0477" fill="white" transform="translate(3.56763) rotate(3.46391)"/>
</clipPath>
</defs>
</svg>
