<svg width="27" height="27" viewBox="0 0 27 27" fill="none" xmlns="http://www.w3.org/2000/svg">
<g clip-path="url(#clip0_87_2)">
<path d="M13.0837 10.2073C13.0458 10.0282 12.9383 9.87142 12.7848 9.77154C12.6313 9.67166 12.4445 9.63684 12.2653 9.67474C12.0862 9.71264 11.9294 9.82015 11.8295 9.97363C11.7296 10.1271 11.6948 10.314 11.7327 10.4931L12.5615 14.4109L8.50859 15.2683C8.32944 15.3062 8.17269 15.4137 8.07281 15.5672C7.97293 15.7207 7.93811 15.9075 7.976 16.0867C8.0139 16.2658 8.12141 16.4226 8.27489 16.5225C8.42837 16.6224 8.61523 16.6572 8.79438 16.6193L13.5228 15.619C13.7019 15.5811 13.8587 15.4736 13.9586 15.3201C14.0585 15.1667 14.0933 14.9798 14.0554 14.8006L13.0837 10.2073Z" fill="#0072DC" fill-opacity="0.5"/>
<path d="M9.06711 4.56445C9.02921 4.3853 9.06404 4.19843 9.16392 4.04496C9.2638 3.89148 9.42055 3.78397 9.5997 3.74607L12.3016 3.17449C12.4808 3.13659 12.6677 3.17141 12.8211 3.27129C12.9746 3.37117 13.0821 3.52793 13.12 3.70708C13.1579 3.88623 13.1231 4.0731 13.0232 4.22657C12.9233 4.38005 12.7666 4.48756 12.5874 4.52546L12.7503 5.29551C14.6437 5.17163 16.4777 5.60793 18.0609 6.48683L18.0734 6.46584L18.4505 5.88643L17.8714 5.5107C17.7177 5.41088 17.61 5.25411 17.572 5.07489C17.534 4.89566 17.5687 4.70867 17.6685 4.55504C17.7683 4.4014 17.9251 4.29372 18.1043 4.25567C18.2835 4.21763 18.4705 4.25234 18.6242 4.35216L20.9388 5.85968C21.0165 5.90834 21.0838 5.97199 21.1366 6.04692C21.1894 6.12184 21.2268 6.20654 21.2466 6.29606C21.2663 6.38559 21.268 6.47815 21.2516 6.56835C21.2352 6.65855 21.201 6.74458 21.151 6.82142C21.101 6.89826 21.0362 6.96437 20.9604 7.0159C20.8846 7.06742 20.7992 7.10333 20.7094 7.12152C20.6195 7.13972 20.5269 7.13983 20.437 7.12187C20.3471 7.1039 20.2617 7.06821 20.1857 7.01687L19.6077 6.63951L19.2306 7.21892L19.2165 7.23885C20.9279 8.53574 22.1588 10.3656 22.7149 12.4396C23.271 14.5137 23.1206 16.7138 22.2875 18.693C21.4545 20.6721 19.9861 22.3175 18.1142 23.3695C16.2422 24.4215 14.0732 24.8202 11.9495 24.5027C9.82583 24.1853 7.86828 23.1697 6.38579 21.6163C4.9033 20.0629 3.98028 18.06 3.76236 15.9238C3.54445 13.7876 4.04406 11.6396 5.18235 9.81885C6.32065 7.99808 8.03281 6.60817 10.0487 5.86845L9.88549 5.09704C9.70634 5.13494 9.51948 5.10012 9.366 5.00024C9.21252 4.90036 9.10501 4.7436 9.06711 4.56445ZM11.6652 6.83771C10.6007 7.06298 9.59104 7.49571 8.69382 8.11118C7.7966 8.72665 7.02939 9.51282 6.436 10.4248C5.23759 12.2666 4.81992 14.5091 5.27488 16.6588C5.72984 18.8086 7.02015 20.6896 8.86197 21.888C10.7038 23.0864 12.9462 23.504 15.096 23.0491C17.2458 22.5941 19.1267 21.3038 20.3251 19.462C21.5236 17.6202 21.9412 15.3777 21.4863 13.228C21.0313 11.0782 19.741 9.19723 17.8992 7.99883C16.0574 6.80042 13.8149 6.38275 11.6652 6.83771Z" fill="#0072DC" fill-opacity="0.5"/>
</g>
<defs>
<clipPath id="clip0_87_2">
<rect width="22.0939" height="22.0939" fill="white" transform="translate(0 5.07111) rotate(-11.9445)"/>
</clipPath>
</defs>
</svg>
