<svg width="20" height="20" viewBox="0 0 20 20" fill="none" xmlns="http://www.w3.org/2000/svg">
<path d="M15.4492 10.4004C15.7161 10.8691 15.9147 11.3574 16.0449 11.8652C16.1751 12.373 16.2435 12.8971 16.25 13.4375V14.4434L10 17.5781L3.75 14.4434C3.75 14.0527 3.75326 13.6882 3.75977 13.3496C3.76628 13.0111 3.79557 12.6823 3.84766 12.3633C3.89974 12.0443 3.97786 11.7253 4.08203 11.4062C4.1862 11.0872 4.34245 10.752 4.55078 10.4004L2.5 9.375V15.1074C2.6888 15.1725 2.85807 15.2637 3.00781 15.3809C3.15755 15.498 3.29102 15.6348 3.4082 15.791C3.52539 15.9473 3.61003 16.1165 3.66211 16.2988C3.71419 16.4811 3.74349 16.6732 3.75 16.875V20H0V16.875C0 16.6797 0.0292969 16.4909 0.0878906 16.3086C0.146484 16.1263 0.23112 15.9538 0.341797 15.791C0.452474 15.6283 0.582682 15.4915 0.732422 15.3809C0.882161 15.2702 1.05469 15.179 1.25 15.1074V8.75L0 8.125L10 3.125L20 8.125L15.4492 10.4004ZM2.5 16.875C2.5 16.7057 2.43815 16.5592 2.31445 16.4355C2.19076 16.3118 2.04427 16.25 1.875 16.25C1.70573 16.25 1.55924 16.3118 1.43555 16.4355C1.31185 16.5592 1.25 16.7057 1.25 16.875V18.75H2.5V16.875ZM2.79297 8.125L10 11.7285L17.207 8.125L10 4.52148L2.79297 8.125ZM15 13.6719C15 13.1706 14.9512 12.7051 14.8535 12.2754C14.7559 11.8457 14.5833 11.4062 14.3359 10.957L10 13.125L5.66406 10.957C5.44922 11.3346 5.28646 11.7318 5.17578 12.1484C5.0651 12.5651 5.00651 12.9948 5 13.4375V13.6719L10 16.1719L15 13.6719Z" fill="#0072DC" fill-opacity="0.5"/>
</svg>
