<svg width="30" height="30" viewBox="0 0 30 30" fill="none" xmlns="http://www.w3.org/2000/svg">
<g clip-path="url(#clip0_87_18)">
<path d="M25.4149 21.5463L23.3325 16.8483L27.3212 13.9274L23.3205 11.7831L24.8253 7.33705L20.0329 7.75266L18.746 3.16896L15.2361 6.36475L11.2409 3.31169L10.3316 8.40655L5.64993 8.03487L8.02835 12.3136L3.29149 15.1154L7.99292 17.319L6.01915 22.346L11.1373 21.1607L12.1173 25.1531L12.1045 25.2007L12.1307 25.2077L12.3619 26.1495L13.0468 25.4532L13.0636 25.4577L13.0715 25.428L15.9137 22.5386L19.5393 25.9306L20.808 20.9859L25.4149 21.5463ZM18.715 18.8524L20.871 18.7264L22.4562 19.936L20.2007 19.6615L18.715 18.8524ZM16.2905 18.2802L13.9895 20.1356L12.9055 17.2042L15.2689 15.616L16.2905 18.2802ZM20.1037 10.858L19.273 13.9583L16.0136 14.2459L16.8211 11.2324L20.1037 10.858ZM15.8887 10.8758L15.1086 13.7871L12.8432 12.1077L13.4604 9.05072L15.8887 10.8758ZM12.2841 12.9292L14.7578 14.7631L12.2981 16.4159L9.67491 14.7321L12.2841 12.9292ZM16.1829 15.2277L19.3389 14.9492L20.3368 17.7629L17.2799 17.942L16.1829 15.2277ZM22.9606 19.072L21.4442 17.9149L20.7042 15.8283L21.9527 16.7978L22.9606 19.072ZM24.9978 14.0903L22.4695 15.9418L20.5133 14.4229L22.5282 12.7666L24.9978 14.0903ZM21.9519 11.955L20.523 13.1295L21.2432 10.4415L22.8235 9.38051L21.9519 11.955ZM21.8452 8.84127L20.3762 9.82766L17.8912 10.1109L19.337 9.05866L21.8452 8.84127ZM18.0947 5.44051L18.8625 8.17597L16.8 9.67723L15.9628 7.38164L18.0947 5.44051ZM15.0539 7.78756L15.6662 9.46661L13.6154 7.92512L12.8306 6.08847L15.0539 7.78756ZM12.6301 8.14647L12.1148 10.6991L11.4492 9.20858L11.9308 6.51004L12.6301 8.14647ZM7.85945 9.45527L10.5682 9.67036L11.5499 11.8693L9.28284 12.0156L7.85945 9.45527ZM9.28845 13.0102L10.537 12.9296L8.6088 14.2622L6.96904 14.3821L9.28845 13.0102ZM6.80162 15.3898L8.65062 15.2546L10.5769 16.491L9.11093 16.4721L6.80162 15.3898ZM9.26805 17.4672L11.8616 17.5007L11.2279 19.8658L8.03608 20.6048L9.26805 17.4672ZM12.1731 20.1745L12.4975 18.9637L13.2387 20.968L12.7842 22.6641L12.1731 20.1745ZM14.1955 21.2332L15.8427 19.9513L15.5152 21.1739L13.7234 22.9954L14.1955 21.2332ZM16.4887 21.377L17.0981 19.1027L19.6528 20.4939L18.8576 23.5932L16.4887 21.377Z" fill="#0072DC" fill-opacity="0.5"/>
</g>
<defs>
<clipPath id="clip0_87_18">
<rect width="23.8499" height="23.8499" fill="white" transform="translate(6.91931) rotate(15)"/>
</clipPath>
</defs>
</svg>
