<svg width="25" height="25" viewBox="0 0 25 25" fill="none" xmlns="http://www.w3.org/2000/svg">
<g clip-path="url(#clip0_87_20)">
<path d="M14.1829 2.59009L22.8911 3.98134L19.7915 23.3819L2.15471 20.5641L5.13728 1.89554L12.6571 12.1404L14.1829 2.59009ZM13.1288 20.5087L18.3096 21.3364L18.4974 20.1609L15.7196 19.7171L16.0014 17.9534L18.7792 18.3972L18.9672 17.2209L16.1894 16.7771L16.4711 15.0134L19.2489 15.4572L19.4367 14.2817L16.6589 13.8379L16.9407 12.0742L19.7185 12.518L19.9063 11.3425L17.1285 10.8987L17.4103 9.13502L20.1881 9.57881L20.376 8.40243L17.5982 7.95864L17.88 6.19496L20.6578 6.63875L20.8456 5.46325L15.6648 4.63555L13.1288 20.5087ZM11.3651 20.2269L12.2612 14.6184L6.22682 6.39693L4.20016 19.0822L11.3651 20.2269Z" fill="#0072DC" fill-opacity="0.5"/>
</g>
<defs>
<clipPath id="clip0_87_20">
<rect width="21.4326" height="21.4326" fill="white" transform="translate(3.63141) rotate(9.07709)"/>
</clipPath>
</defs>
</svg>
