<svg width="47" height="47" viewBox="0 0 47 47" fill="none" xmlns="http://www.w3.org/2000/svg">
<g clip-path="url(#clip0_87_18)">
<path d="M39.6406 34.6234L36.2943 27.0741L42.7038 22.3803L36.275 18.9346L38.6931 11.7901L30.992 12.458L28.924 5.09229L23.2839 10.2277L16.8637 5.32164L15.4026 13.5088L7.87948 12.9115L11.7014 19.7872L4.08961 24.2895L11.6445 27.8304L8.47278 35.9086L16.6973 34.0038L18.2721 40.4194L18.2516 40.4959L18.2937 40.5072L18.6651 42.0206L19.7658 40.9016L19.7928 40.9089L19.8055 40.8612L24.3726 36.2181L30.1988 41.6687L32.2375 33.723L39.6406 34.6234ZM28.8742 30.2946L32.3387 30.0921L34.8861 32.0359L31.2616 31.5947L28.8742 30.2946ZM24.9782 29.375L21.2806 32.3566L19.5387 27.646L23.3366 25.0938L24.9782 29.375ZM31.1058 17.4481L29.7709 22.43L24.5332 22.8922L25.8308 18.0496L31.1058 17.4481ZM24.3325 17.4768L23.0789 22.155L19.4386 19.4563L20.4304 14.5439L24.3325 17.4768ZM18.5401 20.7763L22.5153 23.7234L18.5626 26.3793L14.3474 23.6736L18.5401 20.7763ZM24.8053 24.4699L29.8768 24.0224L31.4803 28.5438L26.568 28.8315L24.8053 24.4699ZM35.6966 30.6474L33.2598 28.7881L32.0707 25.435L34.077 26.9929L35.6966 30.6474ZM38.9703 22.6422L34.9074 25.6174L31.7639 23.1766L35.0018 20.5151L38.9703 22.6422ZM34.0757 19.2108L31.7796 21.0983L32.9369 16.7789L35.4763 15.0738L34.0757 19.2108ZM33.9043 14.2073L31.5436 15.7924L27.5504 16.2476L29.8737 14.5567L33.9043 14.2073ZM27.8774 8.74251L29.1112 13.1382L25.7969 15.5507L24.4516 11.8618L27.8774 8.74251ZM22.9911 12.5141L23.975 15.2122L20.6795 12.7351L19.4183 9.78376L22.9911 12.5141ZM19.0961 13.0908L18.2681 17.1928L17.1985 14.7976L17.9724 10.4612L19.0961 13.0908ZM11.43 15.194L15.7827 15.5396L17.3603 19.0731L13.7173 19.3082L11.43 15.194ZM13.7263 20.9066L15.7327 20.777L12.6342 22.9184L9.99921 23.1111L13.7263 20.9066ZM9.73017 24.7303L12.7014 24.5131L15.7968 26.4999L13.4411 26.4696L9.73017 24.7303ZM13.6936 28.0686L17.8613 28.1225L16.8429 31.923L11.7139 33.1106L13.6936 28.0686ZM18.3618 32.4191L18.8831 30.4734L20.0741 33.6942L19.3438 36.4198L18.3618 32.4191ZM21.6117 34.1204L24.2587 32.0604L23.7323 34.0251L20.853 36.9521L21.6117 34.1204ZM25.2967 34.3514L26.2759 30.6968L30.3812 32.9324L29.1033 37.9127L25.2967 34.3514Z" fill="#0072DC" fill-opacity="0.5"/>
</g>
<defs>
<clipPath id="clip0_87_18">
<rect width="38.3252" height="38.3252" fill="white" transform="translate(9.91931) rotate(15)"/>
</clipPath>
</defs>
</svg>
