<svg width="40" height="40" viewBox="0 0 40 40" fill="none" xmlns="http://www.w3.org/2000/svg">
<g clip-path="url(#clip0_6_273)">
<path d="M5 10H17.5V12.5H5V10ZM27.5 15V17.5H5V15H27.5ZM27.5 20V22.5H5V20H27.5ZM27.5 25V27.5H5V25H27.5ZM5 32.5V30H23.0859L20.5859 32.5H5ZM2.5 37.5H22.5586L25.0586 40H0V0H21.7773L32.5 10.7227V27.5586L30 30.0586V12.5H20V2.5H2.5V37.5ZM22.5 4.27734V10H28.2227L22.5 4.27734ZM37.8711 26.6211L39.6289 28.3789L28.75 39.2773L23.4961 34.0039L25.2539 32.2461L28.75 35.7227L37.8711 26.6211Z" fill="#E7473C"/>
</g>
<defs>
<clipPath id="clip0_6_273">
<rect width="40" height="40" fill="white"/>
</clipPath>
</defs>
</svg>
