<svg width="50" height="50" viewBox="0 0 50 50" fill="none" xmlns="http://www.w3.org/2000/svg">
<path d="M43.7499 10.4166L6.24995 10.4166C5.87027 10.4178 5.49812 10.5225 5.17354 10.7194C4.84895 10.9164 4.58423 11.1982 4.40787 11.5344C4.23151 11.8706 4.15018 12.2486 4.17265 12.6276C4.19511 13.0066 4.32051 13.3723 4.53536 13.6853L23.2854 40.7687C24.0624 41.8916 25.9333 41.8916 26.7124 40.7687L45.4624 13.6853C45.6795 13.3729 45.8067 13.0071 45.8304 12.6274C45.8541 12.2478 45.7733 11.8689 45.5968 11.532C45.4203 11.195 45.1548 10.9129 44.8292 10.7163C44.5036 10.5196 44.1303 10.416 43.7499 10.4166Z" fill="#0072DC"/>
</svg>
