<svg width="40" height="40" viewBox="0 0 40 40" fill="none" xmlns="http://www.w3.org/2000/svg">
<path d="M33.75 16C35.0114 16.7264 36.0341 17.8041 36.6936 19.1017C37.353 20.3993 37.6206 21.8608 37.4637 23.3079C37.3068 24.755 36.7322 26.1251 35.8099 27.2513C34.8877 28.3774 33.6577 29.2109 32.27 29.65C31.7795 31.8758 30.5436 33.8673 28.7669 35.2949C26.9902 36.7225 24.7792 37.5004 22.5 37.5H18.75C18.4185 37.5 18.1005 37.3683 17.8661 37.1339C17.6317 36.8995 17.5 36.5815 17.5 36.25C17.5 35.9185 17.6317 35.6005 17.8661 35.3661C18.1005 35.1317 18.4185 35 18.75 35H22.5C24.0515 35.0005 25.5651 34.5199 26.8321 33.6244C28.0992 32.729 29.0575 31.4627 29.575 30H28.75C28.4185 30 28.1005 29.8683 27.8661 29.6339C27.6317 29.3995 27.5 29.0815 27.5 28.75V16.25C27.5 15.9185 27.6317 15.6005 27.8661 15.3661C28.1005 15.1317 28.4185 15 28.75 15H30C30.405 15 30.8025 15.0325 31.1925 15.095C30.9111 12.3222 29.6104 9.75263 27.5426 7.88405C25.4748 6.01548 22.787 4.98098 20 4.98098C17.213 4.98098 14.5252 6.01548 12.4574 7.88405C10.3895 9.75263 9.08891 12.3222 8.80749 15.095C9.20185 15.0318 9.6006 15.0001 9.99999 15H11.25C11.5815 15 11.8995 15.1317 12.1339 15.3661C12.3683 15.6005 12.5 15.9185 12.5 16.25V28.75C12.5 29.0815 12.3683 29.3995 12.1339 29.6339C11.8995 29.8683 11.5815 30 11.25 30H9.99999C8.34745 30.0018 6.74056 29.4578 5.42899 28.4525C4.11742 27.4472 3.1746 26.0368 2.74703 24.4405C2.31946 22.8443 2.43106 21.1514 3.06451 19.6251C3.69796 18.0988 4.81778 16.8244 6.24999 16C6.24999 12.3533 7.69865 8.85591 10.2773 6.27728C12.8559 3.69866 16.3533 2.25 20 2.25C23.6467 2.25 27.1441 3.69866 29.7227 6.27728C32.3013 8.85591 33.75 12.3533 33.75 16ZM9.99999 17.5C8.67391 17.5 7.40214 18.0268 6.46446 18.9645C5.52678 19.9021 4.99999 21.1739 4.99999 22.5C4.99999 23.8261 5.52678 25.0979 6.46446 26.0355C7.40214 26.9732 8.67391 27.5 9.99999 27.5V17.5ZM35 22.5C35 21.1739 34.4732 19.9021 33.5355 18.9645C32.5978 18.0268 31.3261 17.5 30 17.5V27.5C31.3261 27.5 32.5978 26.9732 33.5355 26.0355C34.4732 25.0979 35 23.8261 35 22.5Z" fill="#0072DC"/>
</svg>
