<svg width="40" height="40" viewBox="0 0 40 40" fill="none" xmlns="http://www.w3.org/2000/svg">
<path d="M20 12.8125C18.5784 12.8125 17.1888 13.234 16.0068 14.0238C14.8249 14.8136 13.9036 15.9361 13.3596 17.2494C12.8156 18.5628 12.6733 20.0079 12.9506 21.4022C13.2279 22.7964 13.9125 24.0771 14.9177 25.0823C15.9229 26.0875 17.2036 26.772 18.5978 27.0494C19.992 27.3267 21.4372 27.1844 22.7505 26.6404C24.0639 26.0964 25.1864 25.1751 25.9762 23.9931C26.766 22.8112 27.1875 21.4215 27.1875 20C27.185 18.0945 26.427 16.2678 25.0796 14.9204C23.7322 13.573 21.9055 12.815 20 12.8125ZM20 25.3125C18.9493 25.3125 17.9222 25.0009 17.0485 24.4172C16.1749 23.8334 15.494 23.0037 15.0919 22.033C14.6898 21.0622 14.5846 19.9941 14.7896 18.9636C14.9946 17.933 15.5005 16.9864 16.2435 16.2435C16.9865 15.5005 17.9331 14.9945 18.9636 14.7896C19.9941 14.5846 21.0623 14.6898 22.033 15.0919C23.0037 15.494 23.8334 16.1749 24.4172 17.0485C25.0009 17.9221 25.3125 18.9493 25.3125 20C25.3125 21.4089 24.7528 22.7602 23.7565 23.7565C22.7602 24.7528 21.409 25.3125 20 25.3125ZM33.4375 20.4437C33.4469 20.1484 33.4469 19.8515 33.4375 19.5562L35.8328 16.5625C35.9244 16.4479 35.9878 16.3134 36.0179 16.1698C36.048 16.0263 36.044 15.8776 36.0063 15.7359C35.6315 14.3235 35.0703 12.9673 34.3375 11.7031C34.2647 11.5748 34.1627 11.4655 34.0397 11.384C33.9167 11.3026 33.7762 11.2513 33.6297 11.2343L29.8094 10.8109C29.6083 10.5953 29.4 10.387 29.1844 10.1859L28.7594 6.36403C28.7424 6.21749 28.6912 6.07702 28.6097 5.95403C28.5283 5.83104 28.4189 5.729 28.2906 5.65622C27.0279 4.92553 25.674 4.36544 24.2641 3.9906C24.122 3.95347 23.9731 3.95024 23.8296 3.98118C23.686 4.01212 23.5517 4.07636 23.4375 4.16872L20.4375 6.57028C20.1417 6.56091 19.8458 6.56091 19.55 6.57028L16.5625 4.16716C16.4479 4.0756 16.3134 4.01221 16.1699 3.98209C16.0263 3.95197 15.8777 3.95595 15.7359 3.99372C14.3236 4.36849 12.9674 4.92967 11.7031 5.66247C11.5748 5.73525 11.4655 5.83729 11.384 5.96028C11.3026 6.08327 11.2513 6.22374 11.2344 6.37028L10.8172 10.1906C10.6016 10.3927 10.3932 10.601 10.1922 10.8156L6.36875 11.25C6.22221 11.2669 6.08173 11.3182 5.95874 11.3996C5.83575 11.4811 5.73372 11.5904 5.66094 11.7187C4.93025 12.9814 4.37016 14.3354 3.99531 15.7453C3.95908 15.8856 3.95588 16.0325 3.98598 16.1743C4.01607 16.3161 4.07863 16.4489 4.16875 16.5625L6.57031 19.5625C6.56094 19.8582 6.56094 20.1542 6.57031 20.45L4.16719 23.4453C4.07563 23.5599 4.01224 23.6944 3.98212 23.8379C3.952 23.9815 3.95598 24.1301 3.99375 24.2718C4.36917 25.6815 4.93034 27.0351 5.6625 28.2968C5.73528 28.4252 5.83732 28.5345 5.96031 28.6159C6.0833 28.6974 6.22377 28.7487 6.37031 28.7656L10.1906 29.189C10.3927 29.4047 10.601 29.613 10.8156 29.814L11.25 33.6312C11.2669 33.7778 11.3182 33.9182 11.3997 34.0412C11.4811 34.1642 11.5904 34.2663 11.7188 34.339C12.9814 35.0697 14.3354 35.6298 15.7453 36.0047C15.8871 36.0424 16.0357 36.0464 16.1792 36.0163C16.3228 35.9862 16.4573 35.9228 16.5719 35.8312L19.5563 33.4375C19.8516 33.4468 20.1484 33.4468 20.4438 33.4375L23.4453 35.8406C23.6117 35.9734 23.8184 36.0456 24.0313 36.0453C24.1125 36.045 24.1933 36.0345 24.2719 36.014C25.6816 35.6386 27.0351 35.0774 28.2969 34.3453C28.4252 34.2725 28.5345 34.1705 28.616 34.0475C28.6974 33.9245 28.7487 33.784 28.7656 33.6375L29.1891 29.8172C29.4047 29.6161 29.613 29.4078 29.8141 29.1922L33.6359 28.7672C33.7825 28.7502 33.923 28.6989 34.0459 28.6175C34.1689 28.536 34.271 28.4267 34.3438 28.2984C35.0747 27.0359 35.6348 25.6818 36.0094 24.2718C36.0471 24.1301 36.0511 23.9815 36.021 23.8379C35.9909 23.6944 35.9275 23.5599 35.8359 23.4453L33.4375 20.4437ZM32.9531 26.9484L29.2594 27.3593C29.0286 27.386 28.8159 27.4973 28.6625 27.6718C28.3537 28.0197 28.0245 28.349 27.6766 28.6578C27.502 28.8111 27.3907 29.0239 27.3641 29.2547L26.9531 32.9468C26.0883 33.408 25.1797 33.7818 24.2406 34.0625L21.3391 31.7406C21.1727 31.6078 20.966 31.5356 20.7531 31.5359H20.6969C20.2327 31.5625 19.7673 31.5625 19.3031 31.5359C19.0713 31.5217 18.8424 31.5941 18.6609 31.739L15.7609 34.0625C14.8228 33.7802 13.9151 33.4049 13.0516 32.9422L12.6406 29.2515C12.614 29.0207 12.5027 28.808 12.3281 28.6547C11.9802 28.3458 11.651 28.0166 11.3422 27.6687C11.1888 27.4942 10.9761 27.3828 10.7453 27.3562L7.05313 26.9453C6.59242 26.083 6.2187 25.1769 5.9375 24.2406L8.25938 21.339C8.4043 21.1575 8.47668 20.9287 8.4625 20.6968C8.43594 20.2326 8.43594 19.7673 8.4625 19.3031C8.47668 19.0713 8.4043 18.8424 8.25938 18.6609L5.9375 15.7609C6.21977 14.8227 6.59507 13.9151 7.05781 13.0515L10.7484 12.6406C10.9792 12.614 11.192 12.5026 11.3453 12.3281C11.6541 11.9802 11.9834 11.651 12.3313 11.3422C12.5058 11.1888 12.6171 10.9761 12.6438 10.7453L13.0547 7.0531C13.917 6.59239 14.823 6.21867 15.7594 5.93747L18.6609 8.25935C18.8424 8.40427 19.0713 8.47665 19.3031 8.46247C19.7673 8.43591 20.2327 8.43591 20.6969 8.46247C20.9287 8.47665 21.1576 8.40427 21.3391 8.25935L24.2391 5.93747C25.1773 6.21974 26.0849 6.59504 26.9484 7.05778L27.3594 10.7515C27.386 10.9823 27.4974 11.195 27.6719 11.3484C28.0198 11.6572 28.349 11.9865 28.6578 12.3343C28.8112 12.5089 29.0239 12.6202 29.2547 12.6468L32.9469 13.0578C33.4074 13.9191 33.7811 14.8241 34.0625 15.7593L31.7406 18.6609C31.5957 18.8424 31.5233 19.0713 31.5375 19.3031C31.5641 19.7673 31.5641 20.2326 31.5375 20.6968C31.5233 20.9287 31.5957 21.1575 31.7406 21.339L34.0625 24.239C33.7812 25.1771 33.407 26.0847 32.9453 26.9484H32.9531Z" fill="#0072DC"/>
</svg>
