<svg width="40" height="40" viewBox="0 0 40 40" fill="none" xmlns="http://www.w3.org/2000/svg">
<path d="M6.66667 35C5.75 35 4.965 34.6733 4.31167 34.02C3.65833 33.3667 3.33222 32.5822 3.33333 31.6667V13.3333C3.33333 12.4167 3.66 11.6317 4.31333 10.9783C4.96667 10.325 5.75111 9.9989 6.66667 10H13.3333V6.66668C13.3333 5.75001 13.66 4.96501 14.3133 4.31168C14.9667 3.65835 15.7511 3.33224 16.6667 3.33335H23.3333C24.25 3.33335 25.035 3.66001 25.6883 4.31335C26.3417 4.96668 26.6678 5.75112 26.6667 6.66668V10H33.3333C34.25 10 35.035 10.3267 35.6883 10.98C36.3417 11.6333 36.6678 12.4178 36.6667 13.3333V20.4583C36.1667 20.0972 35.6389 19.7845 35.0833 19.52C34.5278 19.2556 33.9444 19.0267 33.3333 18.8333V13.3333H6.66667V31.6667H18.4583C18.5417 32.25 18.6667 32.8195 18.8333 33.375C19 33.9306 19.2083 34.4722 19.4583 35H6.66667ZM16.6667 10H23.3333V6.66668H16.6667V10ZM30 38.3333C27.6944 38.3333 25.7289 37.5206 24.1033 35.895C22.4778 34.2695 21.6656 32.3045 21.6667 30C21.6667 27.6945 22.4794 25.7289 24.105 24.1033C25.7306 22.4778 27.6956 21.6656 30 21.6667C32.3056 21.6667 34.2711 22.4795 35.8967 24.105C37.5222 25.7306 38.3344 27.6956 38.3333 30C38.3333 32.3056 37.5206 34.2711 35.895 35.8967C34.2694 37.5222 32.3044 38.3345 30 38.3333ZM30.8333 29.6667V25H29.1667V30.3333L32.75 33.9167L33.9167 32.75L30.8333 29.6667Z" fill="#0072DC"/>
</svg>
